# This file uses centimeters as units for non-parametric coordinates.

mtllib BuildingBlocks.mtl
g default
v -0.568331 -0.060385 0.416156
v -0.551713 -0.058197 0.416156
v -0.554920 -0.052642 0.431643
v -0.562663 -0.039231 0.438057
v -0.576074 -0.046974 0.431643
v -0.581630 -0.050181 0.416156
v 0.271228 0.424335 0.416156
v 0.269040 0.440953 0.416156
v 0.263485 0.437746 0.431643
v 0.250073 0.430003 0.438057
v 0.257816 0.416592 0.431643
v 0.261024 0.411037 0.416156
v -0.780945 0.307873 0.416156
v -0.778757 0.291255 0.416156
v -0.773202 0.294462 0.431643
v -0.759791 0.302205 0.438057
v -0.767534 0.315616 0.431643
v -0.770741 0.321171 0.416156
v 0.058614 0.792593 0.416156
v 0.041995 0.790405 0.416156
v 0.045202 0.784850 0.431643
v 0.052946 0.771438 0.438057
v 0.066357 0.779181 0.431643
v 0.071912 0.782389 0.416156
v -0.773202 0.294462 0.006415
v -0.778757 0.291255 0.021901
v -0.780945 0.307873 0.021901
v -0.770741 0.321171 0.021901
v -0.767534 0.315616 0.006415
v -0.759791 0.302205 0.000000
v 0.066357 0.779181 0.006415
v 0.052946 0.771438 0.000000
v 0.045202 0.784850 0.006415
v 0.041995 0.790405 0.021901
v 0.058614 0.792593 0.021901
v 0.071912 0.782389 0.021901
v -0.568331 -0.060385 0.021901
v -0.581630 -0.050181 0.021901
v -0.576074 -0.046974 0.006415
v -0.562663 -0.039231 0.000000
v -0.554920 -0.052642 0.006415
v -0.551713 -0.058197 0.021901
v 0.271228 0.424335 0.021901
v 0.261024 0.411037 0.021901
v 0.257816 0.416592 0.006415
v 0.250073 0.430003 0.000000
v 0.263485 0.437746 0.006415
v 0.269040 0.440953 0.021901
v -0.567289 -0.056497 0.428796
v 0.267340 0.425376 0.428796
v -0.777057 0.306831 0.428796
v 0.057572 0.788705 0.428796
v -0.777057 0.306831 0.009261
v 0.057572 0.788705 0.009261
v -0.567289 -0.056497 0.009261
v 0.267340 0.425376 0.009261
v 0.774749 0.038935 0.006415
v 0.780945 0.040595 0.021901
v 0.778757 0.023976 0.021901
v 0.765459 0.013772 0.021901
v 0.763799 0.019968 0.006415
v 0.759791 0.034927 0.000000
v 0.774749 0.038935 0.975854
v 0.759791 0.034927 0.982268
v 0.763799 0.019968 0.975854
v 0.765459 0.013772 0.960368
v 0.778757 0.023976 0.960368
v 0.780945 0.040595 0.960368
v 0.364011 -0.071122 0.006415
v 0.378969 -0.067114 0.000000
v 0.382977 -0.082073 0.006415
v 0.384637 -0.088269 0.021901
v 0.368019 -0.086081 0.021901
v 0.357815 -0.072783 0.021901
v 0.364011 -0.071122 0.975854
v 0.357815 -0.072783 0.960368
v 0.368019 -0.086081 0.960368
v 0.384637 -0.088269 0.960368
v 0.382977 -0.082073 0.975854
v 0.378969 -0.067114 0.982268
v 0.272920 0.328666 0.006415
v 0.276928 0.313707 0.000000
v 0.261970 0.309699 0.006415
v 0.255774 0.308039 0.021901
v 0.257962 0.324658 0.021901
v 0.271260 0.334862 0.021901
v 0.272920 0.328666 0.975854
v 0.271260 0.334862 0.960368
v 0.257962 0.324658 0.960368
v 0.255774 0.308039 0.960368
v 0.261970 0.309699 0.975854
v 0.276928 0.313707 0.982268
v 0.672708 0.419756 0.006415
v 0.657750 0.415748 0.000000
v 0.653742 0.430707 0.006415
v 0.652082 0.436903 0.021901
v 0.668700 0.434715 0.021901
v 0.678904 0.421417 0.021901
v 0.672708 0.419756 0.975854
v 0.678904 0.421417 0.960368
v 0.668700 0.434715 0.960368
v 0.652082 0.436903 0.960368
v 0.653742 0.430707 0.975854
v 0.657750 0.415748 0.982268
v 0.775272 0.025989 0.009261
v 0.775272 0.025989 0.973008
v 0.370031 -0.082595 0.009261
v 0.370031 -0.082595 0.973008
v 0.261447 0.322645 0.009261
v 0.261447 0.322645 0.973008
v 0.666688 0.431229 0.009261
v 0.666688 0.431229 0.973008
v 0.391691 -0.678877 0.351830
v 0.394445 -0.664373 0.359767
v 0.390304 -0.673700 0.373065
v 0.376196 -0.680884 0.378572
v 0.378787 -0.690552 0.365127
v 0.378158 -0.688205 0.348542
v 0.176245 0.125180 0.848708
v 0.159861 0.126492 0.851995
v 0.163340 0.113505 0.862005
v 0.167633 0.097485 0.859576
v 0.181740 0.104669 0.854068
v 0.185882 0.113996 0.840770
v -0.019048 -0.788934 0.351830
v -0.002664 -0.790246 0.348542
v -0.002035 -0.792593 0.365127
v -0.004626 -0.782924 0.378572
v -0.020435 -0.783757 0.373065
v -0.028685 -0.777750 0.359767
v -0.234494 0.015123 0.848708
v -0.237248 0.000619 0.840770
v -0.228998 -0.005388 0.854068
v -0.213189 -0.004556 0.859576
v -0.217481 0.011464 0.862005
v -0.220961 0.024451 0.851995
v -0.058444 -0.582072 0.000000
v -0.054964 -0.595059 0.010010
v -0.071348 -0.593747 0.013297
v -0.080985 -0.582563 0.021235
v -0.076844 -0.573236 0.007937
v -0.062736 -0.566052 0.002429
v -0.273890 0.221985 0.496878
v -0.271299 0.212316 0.483433
v -0.285407 0.205133 0.488941
v -0.289549 0.195805 0.502238
v -0.286794 0.210310 0.510175
v -0.273261 0.219638 0.513463
v 0.339391 -0.483690 0.013297
v 0.325858 -0.493019 0.010010
v 0.322378 -0.480031 0.000000
v 0.318086 -0.464012 0.002429
v 0.333895 -0.463179 0.007937
v 0.342145 -0.469186 0.021235
v 0.123944 0.320367 0.510175
v 0.133582 0.309183 0.502238
v 0.125332 0.315190 0.488941
v 0.109522 0.314357 0.483433
v 0.106932 0.324026 0.496878
v 0.107560 0.321679 0.513463
v 0.389986 -0.683511 0.364142
v 0.175805 0.115825 0.858102
v -0.015254 -0.792095 0.364142
v -0.229436 0.007241 0.858102
v -0.070908 -0.584392 0.003903
v -0.285089 0.214944 0.497863
v 0.334332 -0.475808 0.003903
v 0.120151 0.323527 0.497863
vt 0.380574 0.987501
vt 0.380574 0.012499
vt 0.619426 0.987501
vt 0.637499 0.012499
vt 0.380574 0.237501
vt 0.619426 0.237501
vt 0.637499 0.237501
vt 0.137499 0.012499
vt 0.380574 0.487501
vt 0.619426 0.487501
vt 0.862501 0.237501
vt 0.862501 0.012499
vt 0.619426 0.762499
vt 0.380574 0.737501
vt 0.619426 0.737501
vt 0.619426 0.012499
vt 0.380574 0.262499
vt 0.619426 0.262499
vt 0.380574 0.512499
vt 0.619426 0.512499
vt 0.380574 0.762499
vt 0.362501 0.012499
vt 0.362501 0.237501
vt 0.137499 0.237501
vt 0.375000 0.992256
vt 0.367256 -0.000000
vt 0.379005 -0.000000
vt 0.379005 1.000000
vt 0.373876 0.012378
vt 0.632744 -0.000000
vt 0.625000 0.992256
vt 0.626124 0.012378
vt 0.620995 1.000000
vt 0.620995 -0.000000
vt 0.367256 0.250000
vt 0.375000 0.257744
vt 0.373876 0.237622
vt 0.380465 0.250000
vt 0.625000 0.257744
vt 0.632744 0.250000
vt 0.619535 0.250000
vt 0.626124 0.237622
vt 0.125000 0.242256
vt 0.375000 0.507744
vt 0.375000 0.492256
vt 0.132744 0.250000
vt 0.380465 0.500000
vt 0.625000 0.507744
vt 0.875000 0.242256
vt 0.619535 0.500000
vt 0.867256 0.250000
vt 0.625000 0.492256
vt 0.132744 -0.000000
vt 0.375000 0.757744
vt 0.375000 0.742256
vt 0.125000 0.007744
vt 0.380465 0.750000
vt 0.625000 0.757744
vt 0.867256 -0.000000
vt 0.619535 0.750000
vt 0.875000 0.007744
vt 0.625000 0.742256
vt 0.375000 1.000000
vt 0.375000 0.000000
vt 0.625000 0.000000
vt 0.625000 1.000000
vt 0.375000 0.250000
vt 0.625000 0.250000
vt 0.125000 0.250000
vt 0.375000 0.500000
vt 0.625000 0.500000
vt 0.875000 0.250000
vt 0.125000 0.000000
vt 0.375000 0.750000
vt 0.625000 0.750000
vt 0.875000 0.000000
vt 0.380574 0.987501
vt 0.375000 0.992256
vt 0.375000 0.757744
vt 0.380574 0.762499
vt 0.367256 -0.000000
vt 0.362501 0.012499
vt 0.137499 0.012499
vt 0.132744 -0.000000
vt 0.380574 0.012499
vt 0.379005 -0.000000
vt 0.620995 -0.000000
vt 0.619426 0.012499
vt 0.379005 1.000000
vt 0.619426 0.987501
vt 0.620995 1.000000
vt 0.373876 0.012378
vt 0.373876 0.237622
vt 0.362501 0.237501
vt 0.380574 0.237501
vt 0.637499 0.012499
vt 0.632744 -0.000000
vt 0.867256 -0.000000
vt 0.862501 0.012499
vt 0.625000 0.992256
vt 0.619426 0.762499
vt 0.625000 0.757744
vt 0.626124 0.012378
vt 0.626124 0.237622
vt 0.619426 0.237501
vt 0.637499 0.237501
vt 0.367256 0.250000
vt 0.132744 0.250000
vt 0.137499 0.237501
vt 0.375000 0.257744
vt 0.380574 0.262499
vt 0.380574 0.487501
vt 0.375000 0.492256
vt 0.380465 0.250000
vt 0.619535 0.250000
vt 0.619426 0.262499
vt 0.625000 0.257744
vt 0.625000 0.492256
vt 0.619426 0.487501
vt 0.632744 0.250000
vt 0.862501 0.237501
vt 0.867256 0.250000
vt 0.125000 0.242256
vt 0.125000 0.007744
vt 0.375000 0.507744
vt 0.380574 0.512499
vt 0.380574 0.737501
vt 0.375000 0.742256
vt 0.380465 0.500000
vt 0.619535 0.500000
vt 0.619426 0.512499
vt 0.625000 0.507744
vt 0.625000 0.742256
vt 0.619426 0.737501
vt 0.875000 0.242256
vt 0.875000 0.007744
vt 0.380465 0.750000
vt 0.619535 0.750000
vt 0.375000 0.000000
vt 0.375000 1.000000
vt 0.625000 1.000000
vt 0.625000 0.000000
vt 0.375000 0.250000
vt 0.625000 0.250000
vt 0.375000 0.500000
vt 0.125000 0.250000
vt 0.875000 0.250000
vt 0.625000 0.500000
vt 0.375000 0.750000
vt 0.125000 0.000000
vt 0.875000 0.000000
vt 0.625000 0.750000
vt 0.380574 0.987501
vt 0.375000 0.992256
vt 0.375000 0.757744
vt 0.380574 0.762499
vt 0.367256 -0.000000
vt 0.362501 0.012499
vt 0.137499 0.012499
vt 0.132744 -0.000000
vt 0.380574 0.012499
vt 0.379005 -0.000000
vt 0.620995 -0.000000
vt 0.619426 0.012499
vt 0.379005 1.000000
vt 0.619426 0.987501
vt 0.620995 1.000000
vt 0.373876 0.012378
vt 0.373876 0.237622
vt 0.362501 0.237501
vt 0.380574 0.237501
vt 0.637499 0.012499
vt 0.632744 -0.000000
vt 0.867256 -0.000000
vt 0.862501 0.012499
vt 0.625000 0.992256
vt 0.619426 0.762499
vt 0.625000 0.757744
vt 0.626124 0.012378
vt 0.626124 0.237622
vt 0.619426 0.237501
vt 0.637499 0.237501
vt 0.367256 0.250000
vt 0.132744 0.250000
vt 0.137499 0.237501
vt 0.375000 0.257744
vt 0.380574 0.262499
vt 0.380574 0.487501
vt 0.375000 0.492256
vt 0.380465 0.250000
vt 0.619535 0.250000
vt 0.619426 0.262499
vt 0.625000 0.257744
vt 0.625000 0.492256
vt 0.619426 0.487501
vt 0.632744 0.250000
vt 0.862501 0.237501
vt 0.867256 0.250000
vt 0.125000 0.242256
vt 0.125000 0.007744
vt 0.375000 0.507744
vt 0.380574 0.512499
vt 0.380574 0.737501
vt 0.375000 0.742256
vt 0.380465 0.500000
vt 0.619535 0.500000
vt 0.619426 0.512499
vt 0.625000 0.507744
vt 0.625000 0.742256
vt 0.619426 0.737501
vt 0.875000 0.242256
vt 0.875000 0.007744
vt 0.380465 0.750000
vt 0.619535 0.750000
vt 0.375000 0.000000
vt 0.375000 1.000000
vt 0.625000 1.000000
vt 0.625000 0.000000
vt 0.375000 0.250000
vt 0.625000 0.250000
vt 0.375000 0.500000
vt 0.125000 0.250000
vt 0.875000 0.250000
vt 0.625000 0.500000
vt 0.375000 0.750000
vt 0.125000 0.000000
vt 0.875000 0.000000
vt 0.625000 0.750000
vn 0.494181 -0.869220 0.015567
vn -0.258806 -0.965872 0.010571
vn -0.258805 -0.965872 -0.010571
vn 0.494181 -0.869220 -0.015567
vn -0.858092 -0.513263 0.015453
vn -0.858092 -0.513263 -0.015453
vn 0.002036 -0.016800 0.999857
vn 0.349641 -0.614623 0.707099
vn 0.357459 -0.610110 0.707099
vn 0.013531 -0.010164 0.999857
vn 0.505676 -0.862583 0.015567
vn -0.607053 -0.362688 0.707067
vn -0.617624 -0.344379 0.707067
vn -0.873545 -0.486498 0.015453
vn -0.013531 0.010164 0.999857
vn 0.873545 0.486498 0.015453
vn 0.965872 -0.258804 0.010571
vn 0.965872 -0.258804 -0.010571
vn 0.873545 0.486498 -0.015453
vn 0.505676 -0.862583 -0.015567
vn 0.617625 0.344379 0.707066
vn 0.607055 0.362688 0.707065
vn -0.002036 0.016800 0.999857
vn 0.858092 0.513263 0.015453
vn -0.965872 0.258806 0.010571
vn -0.965872 0.258806 -0.010571
vn -0.873545 -0.486498 -0.015453
vn -0.505676 0.862583 0.015567
vn -0.505676 0.862583 -0.015567
vn -0.357460 0.610110 0.707099
vn -0.349641 0.614624 0.707099
vn -0.494181 0.869220 0.015567
vn 0.258806 0.965872 0.010571
vn 0.258806 0.965872 -0.010571
vn -0.494181 0.869220 -0.015567
vn 0.858092 0.513263 -0.015453
vn -0.617624 -0.344379 -0.707067
vn -0.607053 -0.362688 -0.707067
vn -0.013531 0.010164 -0.999857
vn 0.002036 -0.016800 -0.999857
vn -0.357459 0.610110 -0.707099
vn -0.349641 0.614624 -0.707099
vn -0.002036 0.016800 -0.999857
vn 0.607054 0.362688 -0.707066
vn 0.617624 0.344380 -0.707066
vn 0.013531 -0.010164 -0.999857
vn 0.349641 -0.614623 -0.707099
vn 0.357459 -0.610109 -0.707099
vn -0.211327 -0.788676 0.577349
vn 0.788676 -0.211325 0.577349
vn -0.788676 0.211326 0.577348
vn 0.211327 0.788676 0.577348
vn -0.788676 0.211324 -0.577349
vn 0.211327 0.788675 -0.577349
vn -0.211326 -0.788676 -0.577349
vn 0.788676 -0.211324 -0.577349
vn 0.969817 0.243745 -0.006636
vn 0.685710 0.172792 -0.707068
vn 0.680238 0.193213 -0.707068
vn 0.961758 0.273819 -0.006636
vn 0.018926 -0.010927 -0.999761
vn 0.010927 0.018926 -0.999761
vn 0.273819 -0.961758 -0.006636
vn 0.866016 -0.499995 -0.004514
vn 0.866016 -0.499995 0.004514
vn 0.273819 -0.961758 0.006636
vn 0.969817 0.243745 0.006636
vn 0.193213 -0.680237 -0.707069
vn 0.172792 -0.685709 -0.707069
vn -0.010927 -0.018926 -0.999761
vn 0.243745 -0.969817 -0.006636
vn 0.018926 -0.010927 0.999761
vn 0.685710 0.172791 0.707068
vn 0.680238 0.193213 0.707068
vn 0.010927 0.018925 0.999761
vn 0.961758 0.273819 0.006636
vn 0.193213 -0.680237 0.707069
vn 0.172792 -0.685709 0.707069
vn 0.243745 -0.969817 0.006636
vn -0.010927 -0.018925 0.999761
vn -0.680238 -0.193213 -0.707068
vn -0.685709 -0.172792 -0.707068
vn -0.018926 0.010927 -0.999761
vn -0.961758 -0.273819 -0.006636
vn -0.969817 -0.243745 -0.006636
vn -0.499995 -0.866016 -0.004514
vn -0.499995 -0.866016 0.004514
vn -0.961758 -0.273819 0.006636
vn -0.680237 -0.193213 0.707069
vn -0.685709 -0.172792 0.707069
vn -0.969817 -0.243745 0.006636
vn -0.018926 0.010927 0.999761
vn -0.193213 0.680238 -0.707069
vn -0.172792 0.685709 -0.707068
vn -0.273819 0.961758 -0.006636
vn -0.243745 0.969817 -0.006636
vn -0.866017 0.499995 -0.004514
vn -0.866017 0.499995 0.004514
vn -0.273819 0.961758 0.006636
vn -0.193213 0.680237 0.707069
vn -0.172792 0.685709 0.707068
vn -0.243745 0.969817 0.006636
vn 0.499995 0.866016 -0.004514
vn 0.499995 0.866016 0.004514
vn 0.707106 -0.408248 -0.577351
vn 0.707107 -0.408248 0.577350
vn -0.408248 -0.707105 -0.577353
vn -0.408248 -0.707105 0.577353
vn -0.707105 0.408249 -0.577352
vn -0.707106 0.408248 0.577352
vn 0.408249 0.707106 -0.577351
vn 0.408249 0.707107 0.577350
vn 0.969328 0.245571 0.009966
vn 0.841514 -0.408676 -0.353325
vn 0.838709 -0.398209 -0.371479
vn 0.965197 0.260985 -0.016769
vn 0.239161 -0.832857 -0.499151
vn 0.235061 -0.817557 -0.525688
vn 0.149148 -0.496481 0.855138
vn 0.777810 -0.170801 0.604846
vn 0.775804 -0.163314 0.609473
vn 0.146199 -0.485473 0.861941
vn 0.966378 0.256579 0.016769
vn 0.261144 -0.933761 0.244731
vn 0.240724 -0.939233 0.244731
vn 0.209309 -0.840856 -0.499150
vn 0.119075 -0.504539 0.855138
vn -0.205209 0.825555 0.525688
vn 0.527238 0.764214 0.371478
vn 0.524434 0.774681 0.353325
vn -0.209309 0.840856 0.499151
vn 0.962248 0.271993 -0.009966
vn -0.053131 0.239130 0.969533
vn -0.073552 0.233658 0.969533
vn 0.116125 -0.493531 0.861941
vn -0.235061 0.817557 0.525688
vn -0.524434 -0.774681 -0.353325
vn -0.527238 -0.764214 -0.371478
vn 0.205209 -0.825555 -0.525688
vn -0.962248 -0.271993 0.009966
vn -0.966378 -0.256579 -0.016769
vn -0.588203 -0.536823 0.604845
vn -0.590209 -0.529335 0.609473
vn -0.965197 -0.260985 0.016769
vn -0.838709 0.398210 0.371479
vn -0.841513 0.408676 0.353326
vn -0.969327 -0.245571 -0.009966
vn -0.239161 0.832857 0.499151
vn 0.053131 -0.239129 -0.969533
vn 0.073552 -0.233657 -0.969533
vn -0.146199 0.485473 -0.861941
vn -0.116125 0.493531 -0.861941
vn -0.775804 0.163314 -0.609473
vn -0.777810 0.170802 -0.604846
vn -0.149148 0.496481 -0.855138
vn -0.261144 0.933762 -0.244730
vn -0.240724 0.939234 -0.244730
vn -0.119074 0.504540 -0.855138
vn 0.590209 0.529335 -0.609473
vn 0.588203 0.536823 -0.604846
vn 0.762574 -0.615263 0.199832
vn 0.505955 0.342455 0.791665
vn -0.352778 -0.914120 0.199831
vn -0.609398 0.043598 0.791665
vn -0.505955 -0.342455 -0.791666
vn -0.762575 0.615262 -0.199832
vn 0.609398 -0.043596 -0.791665
vn 0.352779 0.914119 -0.199833
s 1
g pCube10
usemtl BuildingBlocks_MAT
f 2/1/1 1/25/2 37/54/3 42/21/4
f 1/26/2 6/22/5 38/8/6 37/53/3
f 4/2/7 3/27/8 11/34/9 10/16/10
f 3/28/8 2/1/1 12/3/11 11/33/9
f 6/22/5 5/29/12 15/37/13 14/23/14
f 5/29/12 4/2/7 16/5/15 15/37/13
f 8/4/16 7/30/17 43/59/18 48/12/19
f 7/31/17 12/3/11 44/13/20 43/58/18
f 10/16/10 9/32/21 23/42/22 22/6/23
f 9/32/21 8/4/16 24/7/24 23/42/22
f 14/23/14 13/35/25 27/46/26 26/24/27
f 13/36/25 18/17/28 28/9/29 27/45/26
f 18/17/28 17/38/30 21/41/31 20/18/32
f 17/38/30 16/5/15 22/6/23 21/41/31
f 20/18/32 19/39/33 35/52/34 34/10/35
f 19/40/33 24/7/24 36/11/36 35/51/34
f 26/24/27 25/43/37 39/56/38 38/8/6
f 25/44/37 30/19/39 40/14/40 39/55/38
f 30/19/39 29/47/41 33/50/42 32/20/43
f 29/47/41 28/9/29 34/10/35 33/50/42
f 32/20/43 31/48/44 47/62/45 46/15/46
f 31/49/44 36/11/36 48/12/19 47/61/45
f 42/21/4 41/57/47 45/60/48 44/13/20
f 41/57/47 40/14/40 46/15/46 45/60/48
f 4/2/7 10/16/10 22/6/23 16/5/15
f 18/17/28 20/18/32 34/10/35 28/9/29
f 30/19/39 32/20/43 46/15/46 40/14/40
f 42/21/4 44/13/20 12/3/11 2/1/1
f 8/4/16 48/12/19 36/11/36 24/7/24
f 38/8/6 6/22/5 14/23/14 26/24/27
f 5/29/12 6/22/5 1/26/2 49/64/49
f 1/25/2 2/1/1 3/28/8 49/63/49
f 3/27/8 4/2/7 5/29/12 49/64/49
f 11/33/9 12/3/11 7/31/17 50/66/50
f 7/30/17 8/4/16 9/32/21 50/65/50
f 9/32/21 10/16/10 11/34/9 50/65/50
f 17/38/30 18/17/28 13/36/25 51/67/51
f 13/35/25 14/23/14 15/37/13 51/67/51
f 15/37/13 16/5/15 17/38/30 51/67/51
f 23/42/22 24/7/24 19/40/33 52/68/52
f 19/39/33 20/18/32 21/41/31 52/68/52
f 21/41/31 22/6/23 23/42/22 52/68/52
f 29/47/41 30/19/39 25/44/37 53/70/53
f 25/43/37 26/24/27 27/46/26 53/69/53
f 27/45/26 28/9/29 29/47/41 53/70/53
f 35/51/34 36/11/36 31/49/44 54/72/54
f 31/48/44 32/20/43 33/50/42 54/71/54
f 33/50/42 34/10/35 35/52/34 54/71/54
f 41/57/47 42/21/4 37/54/3 55/74/55
f 37/53/3 38/8/6 39/56/38 55/73/55
f 39/55/38 40/14/40 41/57/47 55/74/55
f 47/61/45 48/12/19 43/59/18 56/76/56
f 43/58/18 44/13/20 45/60/48 56/75/56
f 45/60/48 46/15/46 47/62/45 56/75/56
s 4
f 58/77/57 57/78/58 93/79/59 98/80/60
f 57/81/58 62/82/61 94/83/62 93/84/59
f 60/85/63 59/86/64 67/87/65 66/88/66
f 59/89/64 58/77/57 68/90/67 67/91/65
f 62/82/61 61/92/68 71/93/69 70/94/70
f 61/92/68 60/85/63 72/95/71 71/93/69
f 64/96/72 63/97/73 99/98/74 104/99/75
f 63/100/73 68/90/67 100/101/76 99/102/74
f 66/88/66 65/103/77 79/104/78 78/105/79
f 65/103/77 64/96/72 80/106/80 79/104/78
f 70/94/70 69/107/81 83/108/82 82/109/83
f 69/110/81 74/111/84 84/112/85 83/113/82
f 74/111/84 73/114/86 77/115/87 76/116/88
f 73/114/86 72/95/71 78/105/79 77/115/87
f 76/116/88 75/117/89 91/118/90 90/119/91
f 75/120/89 80/106/80 92/121/92 91/122/90
f 82/109/83 81/123/93 95/124/94 94/83/62
f 81/125/93 86/126/95 96/127/96 95/128/94
f 86/126/95 85/129/97 89/130/98 88/131/99
f 85/129/97 84/112/85 90/119/91 89/130/98
f 88/131/99 87/132/100 103/133/101 102/134/102
f 87/135/100 92/121/92 104/99/75 103/136/101
f 98/80/60 97/137/103 101/138/104 100/101/76
f 97/137/103 96/127/96 102/134/102 101/138/104
f 60/85/63 66/88/66 78/105/79 72/95/71
f 74/111/84 76/116/88 90/119/91 84/112/85
f 86/126/95 88/131/99 102/134/102 96/127/96
f 98/80/60 100/101/76 68/90/67 58/77/57
f 64/96/72 104/99/75 92/121/92 80/106/80
f 94/83/62 62/82/61 70/94/70 82/109/83
f 61/92/68 62/82/61 57/81/58 105/139/105
f 57/78/58 58/77/57 59/89/64 105/140/105
f 59/86/64 60/85/63 61/92/68 105/139/105
f 67/91/65 68/90/67 63/100/73 106/141/106
f 63/97/73 64/96/72 65/103/77 106/142/106
f 65/103/77 66/88/66 67/87/65 106/142/106
f 73/114/86 74/111/84 69/110/81 107/143/107
f 69/107/81 70/94/70 71/93/69 107/143/107
f 71/93/69 72/95/71 73/114/86 107/143/107
f 79/104/78 80/106/80 75/120/89 108/144/108
f 75/117/89 76/116/88 77/115/87 108/144/108
f 77/115/87 78/105/79 79/104/78 108/144/108
f 85/129/97 86/126/95 81/125/93 109/145/109
f 81/123/93 82/109/83 83/108/82 109/146/109
f 83/113/82 84/112/85 85/129/97 109/145/109
f 91/122/90 92/121/92 87/135/100 110/147/110
f 87/132/100 88/131/99 89/130/98 110/148/110
f 89/130/98 90/119/91 91/118/90 110/148/110
f 97/137/103 98/80/60 93/79/59 111/149/111
f 93/84/59 94/83/62 95/124/94 111/150/111
f 95/128/94 96/127/96 97/137/103 111/149/111
f 103/136/101 104/99/75 99/98/74 112/151/112
f 99/102/74 100/101/76 101/138/104 112/152/112
f 101/138/104 102/134/102 103/133/101 112/152/112
s 7
f 114/153/113 113/154/114 149/155/115 154/156/116
f 113/157/114 118/158/117 150/159/118 149/160/115
f 116/161/119 115/162/120 123/163/121 122/164/122
f 115/165/120 114/153/113 124/166/123 123/167/121
f 118/158/117 117/168/124 127/169/125 126/170/126
f 117/168/124 116/161/119 128/171/127 127/169/125
f 120/172/128 119/173/129 155/174/130 160/175/131
f 119/176/129 124/166/123 156/177/132 155/178/130
f 122/164/122 121/179/133 135/180/134 134/181/135
f 121/179/133 120/172/128 136/182/136 135/180/134
f 126/170/126 125/183/137 139/184/138 138/185/139
f 125/186/137 130/187/140 140/188/141 139/189/138
f 130/187/140 129/190/142 133/191/143 132/192/144
f 129/190/142 128/171/127 134/181/135 133/191/143
f 132/192/144 131/193/145 147/194/146 146/195/147
f 131/196/145 136/182/136 148/197/148 147/198/146
f 138/185/139 137/199/149 151/200/150 150/159/118
f 137/201/149 142/202/151 152/203/152 151/204/150
f 142/202/151 141/205/153 145/206/154 144/207/155
f 141/205/153 140/188/141 146/195/147 145/206/154
f 144/207/155 143/208/156 159/209/157 158/210/158
f 143/211/156 148/197/148 160/175/131 159/212/157
f 154/156/116 153/213/159 157/214/160 156/177/132
f 153/213/159 152/203/152 158/210/158 157/214/160
f 116/161/119 122/164/122 134/181/135 128/171/127
f 130/187/140 132/192/144 146/195/147 140/188/141
f 142/202/151 144/207/155 158/210/158 152/203/152
f 154/156/116 156/177/132 124/166/123 114/153/113
f 120/172/128 160/175/131 148/197/148 136/182/136
f 150/159/118 118/158/117 126/170/126 138/185/139
f 117/168/124 118/158/117 113/157/114 161/215/161
f 113/154/114 114/153/113 115/165/120 161/216/161
f 115/162/120 116/161/119 117/168/124 161/215/161
f 123/167/121 124/166/123 119/176/129 162/217/162
f 119/173/129 120/172/128 121/179/133 162/218/162
f 121/179/133 122/164/122 123/163/121 162/218/162
f 129/190/142 130/187/140 125/186/137 163/219/163
f 125/183/137 126/170/126 127/169/125 163/219/163
f 127/169/125 128/171/127 129/190/142 163/219/163
f 135/180/134 136/182/136 131/196/145 164/220/164
f 131/193/145 132/192/144 133/191/143 164/220/164
f 133/191/143 134/181/135 135/180/134 164/220/164
f 141/205/153 142/202/151 137/201/149 165/221/165
f 137/199/149 138/185/139 139/184/138 165/222/165
f 139/189/138 140/188/141 141/205/153 165/221/165
f 147/198/146 148/197/148 143/211/156 166/223/166
f 143/208/156 144/207/155 145/206/154 166/224/166
f 145/206/154 146/195/147 147/194/146 166/224/166
f 153/213/159 154/156/116 149/155/115 167/225/167
f 149/160/115 150/159/118 151/200/150 167/226/167
f 151/204/150 152/203/152 153/213/159 167/225/167
f 159/212/157 160/175/131 155/174/130 168/227/168
f 155/178/130 156/177/132 157/214/160 168/228/168
f 157/214/160 158/210/158 159/209/157 168/228/168
