# This file uses centimeters as units for non-parametric coordinates.

mtllib Hammer.mtl
g default
v 0.897561 0.000814 0.105883
v 0.897561 0.023620 0.100182
v -0.897561 0.022806 0.098553
v -0.897561 0.000814 0.103439
v 0.897561 0.040724 0.086335
v -0.897561 0.038281 0.084706
v 0.897561 0.047240 0.065973
v -0.897561 0.043982 0.065973
v 0.897561 0.040724 0.046426
v -0.897561 0.038281 0.048055
v 0.897561 0.023620 0.032579
v -0.897561 0.022806 0.034208
v 0.897561 0.000814 0.026878
v -0.897561 0.000814 0.029321
v 0.897561 -0.021991 0.032579
v -0.897561 -0.021177 0.034208
v 0.897561 -0.039095 0.046426
v -0.897561 -0.036652 0.048055
v 0.897561 -0.045611 0.065973
v -0.897561 -0.042353 0.065973
v 0.897561 -0.039095 0.086335
v -0.897561 -0.036652 0.084706
v 0.897561 -0.021991 0.100182
v -0.897561 -0.021177 0.098553
v -0.897561 0.000814 0.065973
v 0.897561 0.000814 0.065973
v -0.756656 -0.040724 0.000000
v -0.756656 0.040724 0.000000
v -0.756656 0.040724 0.135204
v -0.756656 -0.040724 0.135204
v -0.888602 -0.040724 0.000000
v -0.888602 -0.040724 0.135204
v -0.888602 0.040724 0.135204
v -0.888602 0.040724 0.000000
v -0.756656 -0.042353 0.135204
v -0.756656 -0.042353 0.000000
v -0.888602 -0.042353 0.135204
v -0.888602 -0.042353 0.000000
v -0.756656 -0.078190 0.035837
v -0.756656 -0.078190 0.099367
v -0.756656 -0.166969 0.099367
v -0.756656 -0.166969 0.035837
v -0.792493 -0.078190 0.135204
v -0.852765 -0.078190 0.135204
v -0.852765 -0.166969 0.135204
v -0.792493 -0.166969 0.135204
v -0.888602 -0.078190 0.099367
v -0.888602 -0.078190 0.035837
v -0.888602 -0.166969 0.035837
v -0.888602 -0.166969 0.099367
v -0.852765 -0.078190 0.000000
v -0.792493 -0.078190 0.000000
v -0.792493 -0.166969 0.000000
v -0.852765 -0.166969 0.000000
v -0.759099 -0.169413 0.037466
v -0.759099 -0.169413 0.097738
v -0.822629 -0.169413 0.067602
v -0.793307 -0.169413 0.131946
v -0.851136 -0.169413 0.131946
v -0.886158 -0.169413 0.097738
v -0.886158 -0.169413 0.037466
v -0.851136 -0.169413 0.003258
v -0.793307 -0.169413 0.003258
v -0.756656 0.042353 0.000000
v -0.756656 0.042353 0.135204
v -0.888602 0.042353 0.000000
v -0.888602 0.042353 0.135204
v -0.756656 0.078190 0.099367
v -0.756656 0.078190 0.035837
v -0.756656 0.166969 0.035837
v -0.756656 0.166969 0.099367
v -0.792493 0.078190 0.000000
v -0.852765 0.078190 0.000000
v -0.852765 0.166969 0.000000
v -0.792493 0.166969 0.000000
v -0.888602 0.078190 0.035837
v -0.888602 0.078190 0.099367
v -0.888602 0.166969 0.099367
v -0.888602 0.166969 0.035837
v -0.852765 0.078190 0.135204
v -0.792493 0.078190 0.135204
v -0.792493 0.166969 0.135204
v -0.852765 0.166969 0.135204
v -0.759099 0.169413 0.097738
v -0.759099 0.169413 0.037466
v -0.822629 0.169413 0.067602
v -0.793307 0.169413 0.003258
v -0.851136 0.169413 0.003258
v -0.886158 0.169413 0.037466
v -0.886158 0.169413 0.097738
v -0.851136 0.169413 0.131946
v -0.793307 0.169413 0.131946
vt 0.500300 0.156600
vt 0.509100 0.156600
vt 0.508500 0.843400
vt 0.500300 0.843400
vt 0.515500 0.156600
vt 0.514500 0.843400
vt 0.492900 0.156600
vt 0.500500 0.156600
vt 0.500500 0.843400
vt 0.493400 0.843400
vt 0.508100 0.156600
vt 0.507600 0.843400
vt 0.484500 0.156600
vt 0.490900 0.156600
vt 0.491500 0.843400
vt 0.485500 0.843400
vt 0.499700 0.156600
vt 0.499700 0.843400
vt 0.508500 0.156600
vt 0.507900 0.843400
vt 0.514900 0.156600
vt 0.513900 0.843400
vt 0.491900 0.156600
vt 0.499500 0.156600
vt 0.499500 0.843400
vt 0.492400 0.843400
vt 0.507100 0.156600
vt 0.506600 0.843400
vt 0.485100 0.156600
vt 0.491500 0.156600
vt 0.492100 0.843400
vt 0.486100 0.843400
vt 0.513700 0.500300
vt 0.511800 0.508500
vt 0.499500 0.500300
vt 0.506600 0.514500
vt 0.499500 0.516700
vt 0.492400 0.514500
vt 0.487200 0.508500
vt 0.485300 0.500300
vt 0.487200 0.492100
vt 0.492400 0.486100
vt 0.499500 0.483900
vt 0.506600 0.486100
vt 0.511800 0.492100
vt 0.487300 0.509100
vt 0.485300 0.500300
vt 0.500500 0.500300
vt 0.487300 0.491500
vt 0.492900 0.485100
vt 0.500500 0.482800
vt 0.508100 0.485100
vt 0.513600 0.491500
vt 0.515600 0.500300
vt 0.513600 0.509100
vt 0.508100 0.515500
vt 0.500500 0.517800
vt 0.492900 0.515500
vt 0.526000 0.484600
vt 0.526000 0.515400
vt 0.474000 0.515400
vt 0.474000 0.484600
vt 0.474000 0.484600
vt 0.526000 0.484600
vt 0.526000 0.515400
vt 0.474000 0.515400
vt 0.484600 0.789300
vt 0.515400 0.789300
vt 0.515400 0.839900
vt 0.484600 0.839900
vt 0.484600 0.789300
vt 0.515400 0.789300
vt 0.515400 0.839900
vt 0.484600 0.839900
vt 0.474000 0.484100
vt 0.526000 0.484100
vt 0.484100 0.839900
vt 0.484100 0.789300
vt 0.474000 0.484100
vt 0.526000 0.484100
vt 0.515900 0.789300
vt 0.515900 0.839900
vt 0.512100 0.470400
vt 0.487900 0.470400
vt 0.487900 0.436800
vt 0.512100 0.436800
vt 0.470400 0.803100
vt 0.470400 0.826100
vt 0.436800 0.826100
vt 0.436800 0.803100
vt 0.512100 0.470400
vt 0.487900 0.470400
vt 0.487900 0.436800
vt 0.512100 0.436800
vt 0.529600 0.826100
vt 0.529600 0.803100
vt 0.563200 0.803100
vt 0.563200 0.826100
vt 0.529600 0.789300
vt 0.470400 0.789300
vt 0.470400 0.839900
vt 0.529600 0.839900
vt 0.563200 0.789300
vt 0.436800 0.789300
vt 0.436800 0.839900
vt 0.563200 0.839900
vt 0.488400 0.790300
vt 0.511600 0.790300
vt 0.500000 0.814600
vt 0.525000 0.803500
vt 0.525000 0.825600
vt 0.511600 0.838900
vt 0.488400 0.838900
vt 0.475000 0.825600
vt 0.475000 0.803500
vt 0.526000 0.515900
vt 0.474000 0.515900
vt 0.484100 0.839900
vt 0.484100 0.789300
vt 0.526000 0.515900
vt 0.474000 0.515900
vt 0.515900 0.789300
vt 0.515900 0.839900
vt 0.487900 0.529600
vt 0.512100 0.529600
vt 0.512100 0.563200
vt 0.487900 0.563200
vt 0.470400 0.803100
vt 0.470400 0.826100
vt 0.436800 0.826100
vt 0.436800 0.803100
vt 0.487900 0.529600
vt 0.512100 0.529600
vt 0.512100 0.563200
vt 0.487900 0.563200
vt 0.529600 0.826100
vt 0.529600 0.803100
vt 0.563200 0.803100
vt 0.563200 0.826100
vt 0.529600 0.789300
vt 0.470400 0.789300
vt 0.470400 0.839900
vt 0.529600 0.839900
vt 0.563200 0.789300
vt 0.436800 0.789300
vt 0.436800 0.839900
vt 0.563200 0.839900
vt 0.488400 0.790300
vt 0.511600 0.790300
vt 0.500000 0.814600
vt 0.525000 0.803500
vt 0.525000 0.825600
vt 0.511600 0.838900
vt 0.488400 0.838900
vt 0.475000 0.825600
vt 0.475000 0.803500
vt 0.488400 0.435700
vt 0.511600 0.435700
vt 0.435700 0.825600
vt 0.435700 0.803500
vt 0.488400 0.435700
vt 0.511600 0.435700
vt 0.564300 0.803500
vt 0.564300 0.825600
vt 0.487900 0.789300
vt 0.474000 0.803100
vt 0.526000 0.803100
vt 0.512100 0.789300
vt 0.512100 0.839900
vt 0.526000 0.826100
vt 0.474000 0.826100
vt 0.487900 0.839900
vt 0.511600 0.564300
vt 0.488400 0.564300
vt 0.435700 0.825600
vt 0.435700 0.803500
vt 0.511600 0.564300
vt 0.488400 0.564300
vt 0.564300 0.803500
vt 0.564300 0.825600
vt 0.487900 0.789300
vt 0.474000 0.803100
vt 0.526000 0.803100
vt 0.512100 0.789300
vt 0.512100 0.839900
vt 0.526000 0.826100
vt 0.474000 0.826100
vt 0.487900 0.839900
vn -0.001400 0.000000 0.999999
vn -0.001400 0.447413 0.894326
vn -0.001400 0.447413 0.894326
vn -0.001400 0.000000 0.999999
vn -0.001400 0.447413 0.894326
vn -0.001500 0.833063 0.553176
vn -0.001500 0.833033 0.553222
vn -0.001400 0.447413 0.894326
vn -0.001500 0.833063 0.553176
vn -0.001600 0.999999 0.000000
vn -0.001600 0.999999 0.000000
vn -0.001500 0.833033 0.553222
vn -0.001600 0.999999 0.000000
vn -0.001500 0.833063 -0.553176
vn -0.001500 0.833033 -0.553222
vn -0.001600 0.999999 0.000000
vn -0.001500 0.833063 -0.553176
vn -0.001400 0.447413 -0.894326
vn -0.001400 0.447413 -0.894326
vn -0.001500 0.833033 -0.553222
vn -0.001400 0.447413 -0.894326
vn -0.001400 0.000000 -0.999999
vn -0.001400 0.000000 -0.999999
vn -0.001400 0.447413 -0.894326
vn -0.001400 0.000000 -0.999999
vn -0.001400 -0.447413 -0.894326
vn -0.001400 -0.447413 -0.894326
vn -0.001400 0.000000 -0.999999
vn -0.001400 -0.447413 -0.894326
vn -0.001500 -0.833063 -0.553176
vn -0.001500 -0.833033 -0.553222
vn -0.001400 -0.447413 -0.894326
vn -0.001500 -0.833063 -0.553176
vn -0.001600 -0.999999 0.000000
vn -0.001600 -0.999999 0.000000
vn -0.001500 -0.833033 -0.553222
vn -0.001600 -0.999999 0.000000
vn -0.001500 -0.833063 0.553176
vn -0.001500 -0.833033 0.553222
vn -0.001600 -0.999999 0.000000
vn -0.001500 -0.833063 0.553176
vn -0.001400 -0.447413 0.894326
vn -0.001400 -0.447413 0.894326
vn -0.001500 -0.833033 0.553222
vn -0.001400 -0.447413 0.894326
vn -0.001400 0.000000 0.999999
vn -0.001400 0.000000 0.999999
vn -0.001400 -0.447413 0.894326
vn -1.000000 0.000000 0.000000
vn -1.000000 0.000000 0.000000
vn -1.000000 0.000000 0.000000
vn -1.000000 0.000000 0.000000
vn -1.000000 0.000000 0.000000
vn -1.000000 0.000000 0.000000
vn -1.000000 0.000000 0.000000
vn -1.000000 0.000000 0.000000
vn -1.000000 0.000000 0.000000
vn -1.000000 0.000000 0.000000
vn -1.000000 0.000000 0.000000
vn -1.000000 0.000000 0.000000
vn -1.000000 0.000000 0.000000
vn -1.000000 0.000000 0.000000
vn -1.000000 0.000000 0.000000
vn -1.000000 0.000000 0.000000
vn -1.000000 0.000000 0.000000
vn -1.000000 0.000000 0.000000
vn -1.000000 0.000000 0.000000
vn -1.000000 0.000000 0.000000
vn -1.000000 0.000000 0.000000
vn -1.000000 0.000000 0.000000
vn -1.000000 0.000000 0.000000
vn -1.000000 0.000000 0.000000
vn -1.000000 0.000000 0.000000
vn -1.000000 0.000000 0.000000
vn -1.000000 0.000000 0.000000
vn -1.000000 0.000000 0.000000
vn -1.000000 0.000000 0.000000
vn -1.000000 0.000000 0.000000
vn -1.000000 0.000000 0.000000
vn -1.000000 0.000000 0.000000
vn -1.000000 0.000000 0.000000
vn -1.000000 0.000000 0.000000
vn -1.000000 0.000000 0.000000
vn -1.000000 0.000000 0.000000
vn 1.000000 0.000000 -0.000000
vn 1.000000 0.000000 -0.000000
vn 1.000000 0.000000 -0.000000
vn 1.000000 0.000000 -0.000000
vn 1.000000 0.000000 -0.000000
vn 1.000000 0.000000 -0.000000
vn 1.000000 0.000000 -0.000000
vn 1.000000 0.000000 -0.000000
vn 1.000000 0.000000 -0.000000
vn 1.000000 0.000000 -0.000000
vn 1.000000 0.000000 -0.000000
vn 1.000000 0.000000 -0.000000
vn 1.000000 0.000000 -0.000000
vn 1.000000 0.000000 -0.000000
vn 1.000000 0.000000 -0.000000
vn 1.000000 0.000000 -0.000000
vn 1.000000 0.000000 -0.000000
vn 1.000000 0.000000 -0.000000
vn 1.000000 0.000000 -0.000000
vn 1.000000 0.000000 -0.000000
vn 1.000000 0.000000 -0.000000
vn 1.000000 0.000000 -0.000000
vn 1.000000 0.000000 -0.000000
vn 1.000000 0.000000 -0.000000
vn 1.000000 0.000000 -0.000000
vn 1.000000 0.000000 -0.000000
vn 1.000000 0.000000 -0.000000
vn 1.000000 0.000000 -0.000000
vn 1.000000 0.000000 -0.000000
vn 1.000000 0.000000 -0.000000
vn 1.000000 0.000000 -0.000000
vn 1.000000 0.000000 -0.000000
vn 1.000000 0.000000 -0.000000
vn 1.000000 0.000000 -0.000000
vn 1.000000 0.000000 -0.000000
vn 1.000000 0.000000 -0.000000
vn 1.000000 0.000000 -0.000000
vn 1.000000 0.000000 -0.000000
vn 1.000000 0.000000 -0.000000
vn 1.000000 0.000000 -0.000000
vn -1.000000 0.000000 0.000000
vn -1.000000 0.000000 0.000000
vn -1.000000 0.000000 0.000000
vn -1.000000 0.000000 0.000000
vn 0.000000 0.000000 1.000000
vn 0.000000 0.000000 1.000000
vn 0.000000 0.000000 1.000000
vn 0.000000 0.000000 1.000000
vn -0.000000 0.000000 -1.000000
vn -0.000000 0.000000 -1.000000
vn -0.000000 0.000000 -1.000000
vn -0.000000 0.000000 -1.000000
vn 1.000000 0.000000 -0.000000
vn 1.000000 0.000000 -0.000000
vn 1.000000 0.000000 -0.000000
vn 1.000000 0.000000 -0.000000
vn 0.000000 0.000000 1.000000
vn 0.000000 0.000000 1.000000
vn 0.000000 0.000000 1.000000
vn 0.000000 0.000000 1.000000
vn -1.000000 0.000000 0.000000
vn -1.000000 0.000000 0.000000
vn -1.000000 0.000000 0.000000
vn -1.000000 0.000000 0.000000
vn -0.000000 0.000000 -1.000000
vn -0.000000 0.000000 -1.000000
vn -0.000000 0.000000 -1.000000
vn -0.000000 0.000000 -1.000000
vn 1.000000 0.000000 -0.000000
vn 1.000000 0.000000 -0.000000
vn 1.000000 0.000000 -0.000000
vn 1.000000 0.000000 -0.000000
vn 0.000000 0.000000 1.000000
vn 0.000000 0.000000 1.000000
vn 0.000000 0.000000 1.000000
vn 0.000000 0.000000 1.000000
vn -1.000000 0.000000 0.000000
vn -1.000000 0.000000 0.000000
vn -1.000000 0.000000 0.000000
vn -1.000000 0.000000 0.000000
vn -0.000000 0.000000 -1.000000
vn -0.000000 0.000000 -1.000000
vn -0.000000 0.000000 -1.000000
vn -0.000000 0.000000 -1.000000
vn 0.577284 -0.577384 -0.577384
vn 0.577284 -0.577384 -0.577384
vn 0.577284 -0.577384 -0.577384
vn 0.577284 -0.577384 0.577384
vn 0.577284 -0.577384 0.577384
vn 0.577284 -0.577384 0.577384
vn -0.577284 -0.577384 0.577384
vn -0.577284 -0.577384 0.577384
vn -0.577284 -0.577384 0.577384
vn -0.577284 -0.577384 -0.577384
vn -0.577284 -0.577384 -0.577384
vn -0.577284 -0.577384 -0.577384
vn 0.707107 0.000000 -0.707107
vn 0.707107 0.000000 -0.707107
vn 0.707107 0.000000 -0.707107
vn 0.707107 0.000000 -0.707107
vn 0.707107 0.000000 0.707107
vn 0.707107 0.000000 0.707107
vn 0.707107 0.000000 0.707107
vn 0.707107 0.000000 0.707107
vn -0.707107 0.000000 0.707107
vn -0.707107 0.000000 0.707107
vn -0.707107 0.000000 0.707107
vn -0.707107 0.000000 0.707107
vn -0.707107 0.000000 -0.707107
vn -0.707107 0.000000 -0.707107
vn -0.707107 0.000000 -0.707107
vn -0.707107 0.000000 -0.707107
vn 0.000000 -1.000000 0.000000
vn 0.000000 -1.000000 0.000000
vn 0.000000 -1.000000 0.000000
vn 0.000000 -1.000000 0.000000
vn 0.000000 -1.000000 0.000000
vn 0.000000 -1.000000 0.000000
vn 0.000000 -1.000000 0.000000
vn 0.000000 -1.000000 0.000000
vn 0.000000 -1.000000 0.000000
vn 0.000000 -1.000000 0.000000
vn 0.000000 -1.000000 0.000000
vn 0.000000 -1.000000 0.000000
vn 0.000000 -1.000000 0.000000
vn 0.000000 -1.000000 0.000000
vn 0.000000 -1.000000 0.000000
vn 0.000000 -1.000000 0.000000
vn 0.000000 -1.000000 0.000000
vn 0.000000 -1.000000 0.000000
vn 0.000000 -1.000000 0.000000
vn 0.000000 -1.000000 0.000000
vn 0.000000 -1.000000 0.000000
vn 0.000000 -1.000000 0.000000
vn 0.000000 -1.000000 0.000000
vn 0.000000 -1.000000 0.000000
vn 1.000000 0.000000 -0.000000
vn 1.000000 0.000000 -0.000000
vn 1.000000 0.000000 -0.000000
vn 1.000000 0.000000 -0.000000
vn -0.000000 0.000000 -1.000000
vn -0.000000 0.000000 -1.000000
vn -0.000000 0.000000 -1.000000
vn -0.000000 0.000000 -1.000000
vn -1.000000 0.000000 0.000000
vn -1.000000 0.000000 0.000000
vn -1.000000 0.000000 0.000000
vn -1.000000 0.000000 0.000000
vn 0.000000 0.000000 1.000000
vn 0.000000 0.000000 1.000000
vn 0.000000 0.000000 1.000000
vn 0.000000 0.000000 1.000000
vn 1.000000 0.000000 -0.000000
vn 1.000000 0.000000 -0.000000
vn 1.000000 0.000000 -0.000000
vn 1.000000 0.000000 -0.000000
vn -0.000000 0.000000 -1.000000
vn -0.000000 0.000000 -1.000000
vn -0.000000 0.000000 -1.000000
vn -0.000000 0.000000 -1.000000
vn -1.000000 0.000000 0.000000
vn -1.000000 0.000000 0.000000
vn -1.000000 0.000000 0.000000
vn -1.000000 0.000000 0.000000
vn 0.000000 0.000000 1.000000
vn 0.000000 0.000000 1.000000
vn 0.000000 0.000000 1.000000
vn 0.000000 0.000000 1.000000
vn 0.577284 0.577384 0.577384
vn 0.577284 0.577384 0.577384
vn 0.577284 0.577384 0.577384
vn 0.577284 0.577384 -0.577384
vn 0.577284 0.577384 -0.577384
vn 0.577284 0.577384 -0.577384
vn -0.577284 0.577384 -0.577384
vn -0.577284 0.577384 -0.577384
vn -0.577284 0.577384 -0.577384
vn -0.577284 0.577384 0.577384
vn -0.577284 0.577384 0.577384
vn -0.577284 0.577384 0.577384
vn 0.707107 0.000000 0.707107
vn 0.707107 0.000000 0.707107
vn 0.707107 0.000000 0.707107
vn 0.707107 0.000000 0.707107
vn 0.707107 0.000000 -0.707107
vn 0.707107 0.000000 -0.707107
vn 0.707107 0.000000 -0.707107
vn 0.707107 0.000000 -0.707107
vn -0.707107 0.000000 -0.707107
vn -0.707107 0.000000 -0.707107
vn -0.707107 0.000000 -0.707107
vn -0.707107 0.000000 -0.707107
vn -0.707107 0.000000 0.707107
vn -0.707107 0.000000 0.707107
vn -0.707107 0.000000 0.707107
vn -0.707107 0.000000 0.707107
vn 0.000000 1.000000 0.000000
vn 0.000000 1.000000 0.000000
vn 0.000000 1.000000 0.000000
vn 0.000000 1.000000 0.000000
vn 0.000000 1.000000 0.000000
vn 0.000000 1.000000 0.000000
vn 0.000000 1.000000 0.000000
vn 0.000000 1.000000 0.000000
vn 0.000000 1.000000 0.000000
vn 0.000000 1.000000 0.000000
vn 0.000000 1.000000 0.000000
vn 0.000000 1.000000 0.000000
vn 0.000000 1.000000 0.000000
vn 0.000000 1.000000 0.000000
vn 0.000000 1.000000 0.000000
vn 0.000000 1.000000 0.000000
vn 0.000000 1.000000 0.000000
vn 0.000000 1.000000 0.000000
vn 0.000000 1.000000 0.000000
vn 0.000000 1.000000 0.000000
vn 0.000000 1.000000 0.000000
vn 0.000000 1.000000 0.000000
vn 0.000000 1.000000 0.000000
vn 0.000000 1.000000 0.000000
vn 0.742000 -0.670400 -0.000000
vn 0.742000 -0.670400 -0.000000
vn 0.742000 -0.670400 -0.000000
vn 0.742000 -0.670400 -0.000000
vn 0.000000 -0.674224 0.738527
vn 0.000000 -0.674224 0.738527
vn 0.000000 -0.674224 0.738527
vn 0.000000 -0.674224 0.738527
vn -0.742000 -0.670400 0.000000
vn -0.742000 -0.670400 0.000000
vn -0.742000 -0.670400 0.000000
vn -0.742000 -0.670400 0.000000
vn -0.000000 -0.674224 -0.738527
vn -0.000000 -0.674224 -0.738527
vn -0.000000 -0.674224 -0.738527
vn -0.000000 -0.674224 -0.738527
vn 0.515903 -0.684104 -0.515603
vn 0.515903 -0.684104 -0.515603
vn 0.515903 -0.684104 -0.515603
vn 0.515903 -0.684104 -0.515603
vn 0.515903 -0.684104 0.515603
vn 0.515903 -0.684104 0.515603
vn 0.515903 -0.684104 0.515603
vn 0.515903 -0.684104 0.515603
vn -0.515903 -0.684104 0.515603
vn -0.515903 -0.684104 0.515603
vn -0.515903 -0.684104 0.515603
vn -0.515903 -0.684104 0.515603
vn -0.515903 -0.684104 -0.515603
vn -0.515903 -0.684104 -0.515603
vn -0.515903 -0.684104 -0.515603
vn -0.515903 -0.684104 -0.515603
vn 0.742000 0.670400 -0.000000
vn 0.742000 0.670400 -0.000000
vn 0.742000 0.670400 -0.000000
vn 0.742000 0.670400 -0.000000
vn -0.000000 0.674224 -0.738527
vn -0.000000 0.674224 -0.738527
vn -0.000000 0.674224 -0.738527
vn -0.000000 0.674224 -0.738527
vn -0.742000 0.670400 0.000000
vn -0.742000 0.670400 0.000000
vn -0.742000 0.670400 0.000000
vn -0.742000 0.670400 0.000000
vn 0.000000 0.674224 0.738527
vn 0.000000 0.674224 0.738527
vn 0.000000 0.674224 0.738527
vn 0.000000 0.674224 0.738527
vn 0.515903 0.684104 0.515603
vn 0.515903 0.684104 0.515603
vn 0.515903 0.684104 0.515603
vn 0.515903 0.684104 0.515603
vn 0.515903 0.684104 -0.515603
vn 0.515903 0.684104 -0.515603
vn 0.515903 0.684104 -0.515603
vn 0.515903 0.684104 -0.515603
vn -0.515903 0.684104 -0.515603
vn -0.515903 0.684104 -0.515603
vn -0.515903 0.684104 -0.515603
vn -0.515903 0.684104 -0.515603
vn -0.515903 0.684104 0.515603
vn -0.515903 0.684104 0.515603
vn -0.515903 0.684104 0.515603
vn -0.515903 0.684104 0.515603
vn -0.000000 0.000000 -1.000000
vn -0.000000 0.000000 -1.000000
vn -0.000000 0.000000 -1.000000
vn -0.000000 0.000000 -1.000000
vn -1.000000 0.000000 0.000000
vn -1.000000 0.000000 0.000000
vn -1.000000 0.000000 0.000000
vn -1.000000 0.000000 0.000000
vn 0.000000 0.000000 1.000000
vn 0.000000 0.000000 1.000000
vn 0.000000 0.000000 1.000000
vn 0.000000 0.000000 1.000000
vn 1.000000 0.000000 -0.000000
vn 1.000000 0.000000 -0.000000
vn 1.000000 0.000000 -0.000000
vn 1.000000 0.000000 -0.000000
vn 1.000000 0.000000 -0.000000
vn 1.000000 0.000000 -0.000000
vn 1.000000 0.000000 -0.000000
vn 1.000000 0.000000 -0.000000
vn -0.000000 0.000000 -1.000000
vn -0.000000 0.000000 -1.000000
vn -0.000000 0.000000 -1.000000
vn -0.000000 0.000000 -1.000000
vn -1.000000 0.000000 0.000000
vn -1.000000 0.000000 0.000000
vn -1.000000 0.000000 0.000000
vn -1.000000 0.000000 0.000000
vn 0.000000 0.000000 1.000000
vn 0.000000 0.000000 1.000000
vn 0.000000 0.000000 1.000000
vn 0.000000 0.000000 1.000000
s off
g Cylinder003
usemtl Hammer_MAT
f 1/1/1 2/2/2 3/3/3 4/4/4
f 2/2/5 5/5/6 6/6/7 3/3/8
f 5/7/9 7/8/10 8/9/11 6/10/12
f 7/8/13 9/11/14 10/12/15 8/9/16
f 9/13/17 11/14/18 12/15/19 10/16/20
f 11/14/21 13/17/22 14/18/23 12/15/24
f 13/17/25 15/19/26 16/20/27 14/18/28
f 15/19/29 17/21/30 18/22/31 16/20/32
f 17/23/33 19/24/34 20/25/35 18/26/36
f 19/24/37 21/27/38 22/28/39 20/25/40
f 21/29/41 23/30/42 24/31/43 22/32/44
f 23/30/45 1/1/46 4/4/47 24/31/48
f 4/33/49 3/34/50 25/35/51
f 3/34/52 6/36/53 25/35/54
f 6/36/55 8/37/56 25/35/57
f 8/37/58 10/38/59 25/35/60
f 10/38/61 12/39/62 25/35/63
f 12/39/64 14/40/65 25/35/66
f 14/40/67 16/41/68 25/35/69
f 16/41/70 18/42/71 25/35/72
f 18/42/73 20/43/74 25/35/75
f 20/43/76 22/44/77 25/35/78
f 22/44/79 24/45/80 25/35/81
f 24/45/82 4/33/83 25/35/84
f 2/46/85 1/47/86 26/48/87
f 1/47/88 23/49/89 26/48/90
f 23/49/91 21/50/92 26/48/93
f 21/50/94 19/51/95 26/48/96
f 19/51/97 17/52/98 26/48/99
f 17/52/100 15/53/101 26/48/102
f 15/53/103 13/54/104 26/48/105
f 13/54/106 11/55/107 26/48/108
f 11/55/109 9/56/110 26/48/111
f 9/56/112 7/57/113 26/48/114
f 7/57/115 5/58/116 26/48/117
f 5/58/118 2/46/119 26/48/120
f 27/59/121 28/60/122 29/61/123 30/62/124
f 31/63/125 32/64/126 33/65/127 34/66/128
f 30/67/129 29/68/130 33/69/131 32/70/132
f 28/71/133 27/72/134 31/73/135 34/74/136
f 35/75/137 36/76/138 27/59/139 30/62/140
f 37/77/141 35/78/142 30/67/143 32/70/144
f 38/79/145 37/80/146 32/64/147 31/63/148
f 36/81/149 38/82/150 31/73/151 27/72/152
f 39/83/153 40/84/154 41/85/155 42/86/156
f 43/87/157 44/88/158 45/89/159 46/90/160
f 47/91/161 48/92/162 49/93/163 50/94/164
f 51/95/165 52/96/166 53/97/167 54/98/168
f 36/81/169 39/99/170 52/96/171
f 35/78/172 43/87/173 40/100/174
f 37/77/175 47/101/176 44/88/177
f 38/82/178 51/95/179 48/102/180
f 52/96/181 39/99/182 42/103/183 53/97/184
f 40/100/185 43/87/186 46/90/187 41/104/188
f 44/88/189 47/101/190 50/105/191 45/89/192
f 48/102/193 51/95/194 54/98/195 49/106/196
f 55/107/197 56/108/198 57/109/199
f 56/108/200 58/110/201 57/109/202
f 58/110/203 59/111/204 57/109/205
f 59/111/206 60/112/207 57/109/208
f 60/112/209 61/113/210 57/109/211
f 61/113/212 62/114/213 57/109/214
f 62/114/215 63/115/216 57/109/217
f 63/115/218 55/107/219 57/109/220
f 64/116/221 65/117/222 29/61/223 28/60/224
f 66/118/225 64/119/226 28/71/227 34/74/228
f 67/120/229 66/121/230 34/66/231 33/65/232
f 65/122/233 67/123/234 33/69/235 29/68/236
f 68/124/237 69/125/238 70/126/239 71/127/240
f 72/128/241 73/129/242 74/130/243 75/131/244
f 76/132/245 77/133/246 78/134/247 79/135/248
f 80/136/249 81/137/250 82/138/251 83/139/252
f 65/122/253 68/140/254 81/137/255
f 64/119/256 72/128/257 69/141/258
f 66/118/259 76/142/260 73/129/261
f 67/123/262 80/136/263 77/143/264
f 81/137/265 68/140/266 71/144/267 82/138/268
f 69/141/269 72/128/270 75/131/271 70/145/272
f 73/129/273 76/142/274 79/146/275 74/130/276
f 77/143/277 80/136/278 83/139/279 78/147/280
f 84/148/281 85/149/282 86/150/283
f 85/149/284 87/151/285 86/150/286
f 87/151/287 88/152/288 86/150/289
f 88/152/290 89/153/291 86/150/292
f 89/153/293 90/154/294 86/150/295
f 90/154/296 91/155/297 86/150/298
f 91/155/299 92/156/300 86/150/301
f 92/156/302 84/148/303 86/150/304
f 41/85/305 56/157/306 55/158/307 42/86/308
f 45/89/309 59/159/310 58/160/311 46/90/312
f 49/93/313 61/161/314 60/162/315 50/94/316
f 53/97/317 63/163/318 62/164/319 54/98/320
f 42/165/321 55/107/322 63/115/323 53/166/324
f 46/167/325 58/110/326 56/108/327 41/168/328
f 50/169/329 60/112/330 59/111/331 45/170/332
f 54/171/333 62/114/334 61/113/335 49/172/336
f 70/126/337 85/173/338 84/174/339 71/127/340
f 74/130/341 88/175/342 87/176/343 75/131/344
f 78/134/345 90/177/346 89/178/347 79/135/348
f 82/138/349 92/179/350 91/180/351 83/139/352
f 71/181/353 84/148/354 92/156/355 82/182/356
f 75/183/357 87/151/358 85/149/359 70/184/360
f 79/185/361 89/153/362 88/152/363 74/186/364
f 83/187/365 91/155/366 90/154/367 78/188/368
f 51/95/369 38/82/370 36/81/371 52/96/372
f 47/91/373 37/80/374 38/79/375 48/92/376
f 43/87/377 35/78/378 37/77/379 44/88/380
f 39/83/381 36/76/382 35/75/383 40/84/384
f 68/124/385 65/117/386 64/116/387 69/125/388
f 72/128/389 64/119/390 66/118/391 73/129/392
f 76/132/393 66/121/394 67/120/395 77/133/396
f 80/136/397 67/123/398 65/122/399 81/137/400
